<?xml version="1.0" encoding="utf-8"?>
<!-- Generator: Adobe Illustrator 25.4.0, SVG Export Plug-In . SVG Version: 6.00 Build 0)  -->
<svg version="1.1" id="图层_1" xmlns="http://www.w3.org/2000/svg" xmlns:xlink="http://www.w3.org/1999/xlink" x="0px" y="0px"
	 width="16px" height="16px" viewBox="0 0 16 16" style="enable-background:new 0 0 16 16;" xml:space="preserve">
<style type="text/css">
	.st0{fill:url(#SVGID_1_);}
	.st1{fill:url(#SVGID_00000065053729254745958430000007109588572426352314_);}
	.st2{fill:#FFFFFF;}
</style>
<g>
	<g>
		<linearGradient id="SVGID_1_" gradientUnits="userSpaceOnUse" x1="2.817" y1="2.9707" x2="13.1711" y2="10.4449">
			<stop  offset="0" style="stop-color:#C54B1C"/>
			<stop  offset="0.9996" style="stop-color:#852020"/>
		</linearGradient>
		<path class="st0" d="M13.46,2.08C11.71,1.39,10.05,1,8,1C5.95,1,4.29,1.39,2.54,2.08C2.21,2.2,1.97,2.53,1.97,2.92v5.67
			c0,2.98,4.22,5.49,5.64,6.18c0.12,0.06,0.27,0.09,0.39,0.09c0.12,0,0.27-0.03,0.39-0.09c1.42-0.69,5.64-3.2,5.64-6.18V2.92
			C14.03,2.53,13.79,2.2,13.46,2.08z"/>
	</g>
	
		<linearGradient id="SVGID_00000161621991154689406870000010578558795269412031_" gradientUnits="userSpaceOnUse" x1="1.0298" y1="8" x2="14.9702" y2="8">
		<stop  offset="0" style="stop-color:#C54B1C"/>
		<stop  offset="0.9996" style="stop-color:#852020"/>
	</linearGradient>
	<path style="fill:url(#SVGID_00000161621991154689406870000010578558795269412031_);" d="M8,16c-0.17,0-0.35-0.04-0.49-0.11
		c-1.02-0.5-2.56-1.43-3.84-2.56c-1.75-1.54-2.64-3.08-2.64-4.58V2.3c0-0.48,0.29-0.9,0.72-1.06C3.95,0.37,5.82,0,8,0
		c2.18,0,4.05,0.37,6.25,1.24c0.43,0.16,0.72,0.58,0.72,1.06v6.45c0,1.49-0.89,3.03-2.64,4.58c-1.28,1.12-2.82,2.06-3.84,2.56
		C8.35,15.96,8.17,16,8,16z M8,0.21c-2.16,0-4,0.37-6.17,1.23C1.47,1.57,1.24,1.91,1.24,2.3v6.45c0,3.79,6.1,6.82,6.36,6.94
		c0.11,0.06,0.27,0.09,0.4,0.09c0.13,0,0.29-0.04,0.4-0.09c0.26-0.13,6.36-3.16,6.36-6.94V2.3c0-0.39-0.23-0.74-0.58-0.86l0,0
		C12,0.58,10.16,0.21,8,0.21z"/>
	<path class="st2" d="M9.64,6.51h-0.1V5.64c0-0.51-0.32-1.48-1.55-1.48c-1.22,0-1.55,0.97-1.55,1.48v0.87h-0.1
		c-0.29,0-0.53,0.24-0.53,0.53v2.72c0,0.29,0.24,0.53,0.53,0.53h3.29c0.29,0,0.53-0.24,0.53-0.53V7.03
		C10.17,6.74,9.93,6.51,9.64,6.51z M7,5.64c0,0,0-0.24,0.13-0.47C7.29,4.86,7.57,4.71,8,4.71c0.42,0,0.7,0.14,0.87,0.44
		C9,5.39,9,5.64,9,5.64v0.87H7V5.64z M8.19,8.33v0.66C8.19,9.1,8.11,9.19,8,9.19h0c-0.11,0-0.19-0.09-0.19-0.19V8.33
		C7.73,8.28,7.69,8.19,7.69,8.09c0-0.17,0.14-0.31,0.31-0.31c0.17,0,0.31,0.14,0.31,0.31C8.31,8.19,8.27,8.28,8.19,8.33z"/>
</g>
</svg>
