<?xml version="1.0" encoding="utf-8"?>
<!-- Generator: Adobe Illustrator 25.4.0, SVG Export Plug-In . SVG Version: 6.00 Build 0)  -->
<svg version="1.1" id="图层_1" xmlns="http://www.w3.org/2000/svg" xmlns:xlink="http://www.w3.org/1999/xlink" x="0px" y="0px"
	 width="24px" height="24px" viewBox="0 0 24 24" style="enable-background:new 0 0 24 24;" xml:space="preserve">
<style type="text/css">
	.st0{fill:#E94547;}
	.st1{fill:#FFFFFF;}
</style>
<g>
	<g>
		<circle class="st0" cx="12" cy="12" r="11"/>
		<path class="st1" d="M12,23.84C5.47,23.84,0.16,18.53,0.16,12S5.47,0.16,12,0.16S23.84,5.47,23.84,12S18.53,23.84,12,23.84z
			 M12,1.84C6.4,1.84,1.84,6.4,1.84,12S6.4,22.16,12,22.16S22.16,17.6,22.16,12S17.6,1.84,12,1.84z"/>
	</g>
	<path class="st1" d="M14.61,10.86h-0.15V9.49c0-0.81-0.51-2.34-2.45-2.34S9.56,8.68,9.56,9.49v1.37H9.39
		c-0.46,0-0.83,0.38-0.83,0.83v4.32c0,0.46,0.38,0.83,0.83,0.83h5.21c0.46,0,0.83-0.38,0.83-0.83V11.7
		C15.44,11.24,15.06,10.86,14.61,10.86z M10.41,9.49c0,0,0.01-0.38,0.2-0.75c0.26-0.49,0.71-0.73,1.39-0.73
		c0.66,0,1.11,0.23,1.38,0.7c0.21,0.38,0.22,0.78,0.22,0.78v1.37h-3.18V9.49H10.41z M12.31,13.76v1.05c0,0.17-0.14,0.31-0.31,0.31
		l0,0c-0.17,0-0.31-0.14-0.31-0.31v-1.05c-0.12-0.09-0.19-0.23-0.19-0.39c0-0.27,0.22-0.5,0.5-0.5c0.27,0,0.5,0.22,0.5,0.5
		C12.5,13.53,12.42,13.67,12.31,13.76z"/>
</g>
</svg>
