<?xml version="1.0" encoding="utf-8"?>
<!-- Generator: Adobe Illustrator 25.4.0, SVG Export Plug-In . SVG Version: 6.00 Build 0)  -->
<svg version="1.1" id="图层_1" xmlns="http://www.w3.org/2000/svg" xmlns:xlink="http://www.w3.org/1999/xlink" x="0px" y="0px"
	 width="24px" height="24px" viewBox="0 0 24 24" style="enable-background:new 0 0 24 24;" xml:space="preserve">
<style type="text/css">
	.st0{fill:#F2AD36;}
	.st1{fill:#FFFFFF;}
</style>
<g>
	<g>
		<path class="st0" d="M9.44,3.49L1.32,17.56c-1.14,1.97,0.28,4.43,2.56,4.43h16.25c2.27,0,3.69-2.46,2.56-4.43L14.56,3.49
			C13.42,1.52,10.58,1.52,9.44,3.49z"/>
		<path class="st1" d="M20.12,22.91H3.88c-1.4,0-2.65-0.72-3.35-1.93c-0.7-1.21-0.7-2.66,0-3.87L8.65,3.03
			C9.35,1.82,10.6,1.09,12,1.09s2.65,0.72,3.35,1.93l8.12,14.07c0.7,1.21,0.7,2.66,0,3.87C22.78,22.18,21.52,22.91,20.12,22.91z
			 M10.24,3.95L2.11,18.02c-0.37,0.64-0.37,1.4,0,2.03s1.03,1.02,1.76,1.02h16.25c0.74,0,1.39-0.38,1.76-1.02s0.37-1.4,0-2.03
			L13.76,3.95C13.39,3.31,12.74,2.93,12,2.93S10.61,3.31,10.24,3.95z"/>
	</g>
	<g>
		<path class="st1" d="M12.91,18.37c0,0.21-0.1,0.38-0.31,0.49c-0.2,0.11-0.43,0.17-0.67,0.17s-0.47-0.06-0.67-0.17
			s-0.31-0.27-0.31-0.49v-6.22c0-0.22,0.1-0.39,0.31-0.49c0.2-0.11,0.43-0.16,0.67-0.16s0.47,0.05,0.67,0.16s0.31,0.27,0.31,0.49
			V18.37z"/>
		<circle class="st1" cx="12" cy="8.49" r="1.18"/>
	</g>
</g>
</svg>
