<?xml version="1.0" encoding="utf-8"?>
<!-- Generator: Adobe Illustrator 25.4.0, SVG Export Plug-In . SVG Version: 6.00 Build 0)  -->
<svg version="1.1" id="图层_1" xmlns="http://www.w3.org/2000/svg" xmlns:xlink="http://www.w3.org/1999/xlink" x="0px" y="0px"
	 width="24px" height="24px" viewBox="0 0 24 24" style="enable-background:new 0 0 24 24;" xml:space="preserve">
<style type="text/css">
	.st0{fill:#22B289;}
	.st1{fill:#FFFFFF;}
</style>
<g>
	<g>
		<path class="st0" d="M20.77,2.6C17.96,1.48,15.3,0.85,12,0.85c-3.3,0-5.96,0.63-8.77,1.75C2.69,2.79,2.3,3.32,2.3,3.95v9.11
			c0,4.8,6.79,8.82,9.06,9.94c0.19,0.1,0.44,0.15,0.63,0.15c0.19,0,0.44-0.05,0.63-0.15c2.28-1.11,9.06-5.14,9.06-9.94V3.95
			C21.7,3.32,21.31,2.79,20.77,2.6z"/>
		<path class="st1" d="M12,24c-0.34,0-0.71-0.09-1.01-0.24c-0.97-0.47-9.54-4.84-9.54-10.7V3.95c0-0.97,0.6-1.83,1.48-2.16
			C6.06,0.56,8.86,0,12,0c3.13,0,5.93,0.56,9.08,1.8c0.88,0.33,1.47,1.19,1.47,2.15v9.11c0,5.86-8.57,10.22-9.54,10.7
			C12.71,23.91,12.34,24,12,24z M12,1.7c-2.95,0-5.48,0.5-8.46,1.69C3.3,3.47,3.16,3.7,3.16,3.95v9.11c0,3.93,5.62,7.72,8.59,9.17
			c0.07,0.03,0.18,0.06,0.26,0.06c0.08,0,0.19-0.02,0.25-0.06c2.98-1.46,8.59-5.24,8.59-9.18V3.95c0-0.25-0.15-0.48-0.36-0.56
			l-0.02-0.01C17.48,2.21,14.95,1.7,12,1.7z"/>
	</g>
	<path class="st1" d="M10.34,15.02c-0.2,0-0.4-0.09-0.53-0.24l-2.92-3.22c-0.27-0.3-0.25-0.75,0.05-1.02
		c0.3-0.27,0.75-0.25,1.02,0.05l2.39,2.63l5.78-6.38c0.27-0.3,0.72-0.32,1.02-0.05c0.3,0.27,0.32,0.72,0.05,1.02l-6.32,6.97
		C10.73,14.93,10.54,15.02,10.34,15.02z"/>
</g>
</svg>
