<?xml version="1.0" encoding="utf-8"?>
<!-- Generator: Adobe Illustrator 25.4.0, SVG Export Plug-In . SVG Version: 6.00 Build 0)  -->
<svg version="1.1" id="图层_1" xmlns="http://www.w3.org/2000/svg" xmlns:xlink="http://www.w3.org/1999/xlink" x="0px" y="0px"
	 width="16px" height="16px" viewBox="0 0 16 16" style="enable-background:new 0 0 16 16;" xml:space="preserve">
<style type="text/css">
	.st0{fill:url(#SVGID_1_);}
	.st1{fill:#FFFFFF;}
	.st2{fill:url(#SVGID_00000142886065282700889370000000720872716008042662_);}
</style>
<g>
	<linearGradient id="SVGID_1_" gradientUnits="userSpaceOnUse" x1="3.813" y1="3.5045" x2="12.9511" y2="10.4024">
		<stop  offset="0" style="stop-color:#1EB085"/>
		<stop  offset="0.9972" style="stop-color:#036C68"/>
	</linearGradient>
	<path class="st0" d="M13.46,2.08C11.71,1.39,10.05,1,8,1C5.95,1,4.29,1.39,2.54,2.08C2.21,2.2,1.97,2.53,1.97,2.92v5.67
		c0,2.98,4.22,5.49,5.64,6.18c0.12,0.06,0.27,0.09,0.39,0.09c0.12,0,0.27-0.03,0.39-0.09c1.42-0.69,5.64-3.2,5.64-6.18V2.92
		C14.03,2.53,13.79,2.2,13.46,2.08z"/>
	<path class="st1" d="M7.08,9.98c-0.11,0-0.22-0.04-0.3-0.12L4.61,7.69c-0.16-0.16-0.16-0.43,0-0.6c0.16-0.16,0.43-0.16,0.6,0
		l1.87,1.87l4.4-4.4c0.16-0.16,0.43-0.16,0.6,0c0.16,0.16,0.16,0.43,0,0.6l-4.7,4.7C7.29,9.94,7.19,9.98,7.08,9.98z"/>
	
		<linearGradient id="SVGID_00000159458615482579553570000009024560390317963148_" gradientUnits="userSpaceOnUse" x1="1.3255" y1="1.5215" x2="14.2059" y2="11.2441">
		<stop  offset="0" style="stop-color:#1EB085"/>
		<stop  offset="0.9972" style="stop-color:#036C68"/>
	</linearGradient>
	<path style="fill:url(#SVGID_00000159458615482579553570000009024560390317963148_);" d="M8,16c-0.17,0-0.35-0.04-0.49-0.11
		c-1.02-0.5-2.56-1.43-3.84-2.56c-1.75-1.54-2.64-3.08-2.64-4.58V2.3c0-0.48,0.29-0.9,0.72-1.06C3.95,0.37,5.82,0,8,0
		c2.18,0,4.05,0.37,6.25,1.24c0.43,0.16,0.72,0.58,0.72,1.06v6.45c0,1.49-0.89,3.03-2.64,4.58c-1.28,1.12-2.82,2.06-3.84,2.56
		C8.35,15.96,8.17,16,8,16z M8,0.21c-2.16,0-4,0.37-6.17,1.23C1.47,1.57,1.24,1.91,1.24,2.3v6.45c0,3.79,6.1,6.82,6.36,6.94
		c0.11,0.06,0.27,0.09,0.4,0.09c0.13,0,0.29-0.04,0.4-0.09c0.26-0.13,6.36-3.16,6.36-6.94V2.3c0-0.39-0.23-0.74-0.58-0.86l0,0
		C12,0.58,10.16,0.21,8,0.21z"/>
</g>
</svg>
